<svg width="18" height="17" viewBox="0 0 18 17" fill="none" xmlns="http://www.w3.org/2000/svg">
<path d="M7.83195 7.65832V5.31006L11.7457 8.44107L7.83195 11.5721V9.22382H0.78717V7.65832H7.83195ZM1.92842 10.7893H3.59099C4.13739 12.1349 5.13435 13.2489 6.41134 13.9406C7.68833 14.6324 9.166 14.859 10.5916 14.5816C12.0172 14.3042 13.3021 13.5401 14.2265 12.42C15.151 11.2999 15.6575 9.89338 15.6595 8.44107C15.6603 6.98723 15.1552 5.57841 14.2309 4.45625C13.3065 3.33409 12.0205 2.56851 10.5935 2.29083C9.1664 2.01316 7.68717 2.24068 6.40951 2.93438C5.13185 3.62809 4.13537 4.74474 3.59099 6.09281H1.92842C2.92565 2.91718 5.89228 0.613541 9.39745 0.613541C13.7206 0.613541 17.225 4.11793 17.225 8.44107C17.225 12.7642 13.7206 16.2686 9.39745 16.2686C5.89228 16.2686 2.92565 13.965 1.92842 10.7893Z" fill="#12A3DA"/>
</svg>
