<svg width="18" height="17" viewBox="0 0 18 17" fill="none" xmlns="http://www.w3.org/2000/svg">
<path d="M13.9391 7.6494H7.60579V9.23273H13.9391V11.6077L17.8975 8.44107L13.9391 5.2744V7.6494ZM14.7308 13.1911H12.587C11.6728 13.9972 10.5455 14.5225 9.34024 14.7039C8.13497 14.8853 6.90297 14.715 5.79208 14.2135C4.68119 13.712 3.7386 12.9007 3.07741 11.8768C2.41622 10.8528 2.06452 9.6599 2.06452 8.44107C2.06452 7.22223 2.41622 6.02929 3.07741 5.00538C3.7386 3.98147 4.68119 3.1701 5.79208 2.66863C6.90297 2.16715 8.13497 1.99688 9.34024 2.17824C10.5455 2.3596 11.6728 2.88488 12.587 3.69107H14.7308C13.994 2.70716 13.0379 1.90864 11.9385 1.35893C10.8391 0.809221 9.62665 0.523478 8.39746 0.524401C4.02509 0.524401 0.480795 4.06869 0.480795 8.44107C0.480795 12.8134 4.02509 16.3577 8.39746 16.3577C9.62665 16.3587 10.8391 16.0729 11.9385 15.5232C13.0379 14.9735 13.994 14.175 14.7308 13.1911Z" fill="#12A3DA"/>
</svg>
